<?xml version="1.0" encoding="UTF-8"?>
<svg width="612px" height="602px" viewBox="0 0 612 602" version="1.1" xmlns="http://www.w3.org/2000/svg" xmlns:xlink="http://www.w3.org/1999/xlink">
  <title>icon</title>
  <g stroke="none" stroke-width="1" fill="none" fill-rule="evenodd">
    <g id="icon" fill="#0BA4DB" fill-rule="nonzero">
      <path d="M548.416,0 L31.792,0 C14.306,0 0,14.333 0,31.852 L0,89.185 C0,106.704 14.306,121.037 31.792,121.037 L546.826,121.037 C564.312,121.037 578.618,106.704 578.618,89.185 L578.618,31.852 C580.208,14.333 565.901,0 548.416,0 Z M548.416,320.111 L31.792,320.111 C14.306,320.111 0,334.444 0,351.963 L0,409.296 C0,426.815 14.306,441.148 31.792,441.148 L546.826,441.148 C564.312,441.148 578.618,426.815 578.618,409.296 L578.618,351.963 C580.208,334.444 565.901,320.111 548.416,320.111 Z M322.691,480.963 L31.792,480.963 C14.306,480.963 0,495.296 0,512.815 L0,570.148 C0,587.667 14.306,602 31.792,602 L322.691,602 C340.177,602 354.483,587.667 354.483,570.148 L354.483,512.815 C354.483,495.296 340.177,480.963 322.691,480.963 Z M580.208,160.852 L31.792,160.852 C14.306,160.852 0,175.185 0,192.703 L0,250.037 C0,267.555 14.306,281.889 31.792,281.889 L580.208,281.889 C597.694,281.889 612,267.555 612,250.037 L612,192.703 C612,175.185 597.694,160.852 580.208,160.852 Z" id="Shape"></path>
    </g>
  </g>
</svg>